<?xml version="1.0" standalone="no"?>
<!DOCTYPE svg PUBLIC "-//W3C//DTD SVG 20010904//EN"
 "http://www.w3.org/TR/2001/REC-SVG-20010904/DTD/svg10.dtd">
<svg version="1.0" xmlns="http://www.w3.org/2000/svg"
 width="667.000000pt" height="435.000000pt" viewBox="0 0 667.000000 435.000000"
 preserveAspectRatio="xMidYMid meet">

<g transform="translate(0.000000,217.000000) scale(0.100000,-0.100000)"
fill="#ffce70" stroke="none">
<path d="m1725 2126 c0 -30 7 -54 23 -75 24 -33 28 -62 12 -91 -9 -17 -129 -80
-153 -80 -16 0 -2 109 21 162 16 35 85 128 96 128 0 0 1 -20 1 -44z m3297 -70
c19 -38 32 -82 36 -120 6 -68 12 -66 -93 -22 -47 19 -63 32 -73 57 -12 29 -11
35 12 70 19 28 26 52 26 86 l0 47 31 -30 c17 -16 44 -56 61 -88z m-2912 55
c-19 -66 -49 -95 -130 -123 -58 -21 -101 -27 -122 -19 -15 5 -14 11 10 56 23
42 37 55 92 82 45 23 80 33 112 33 47 0 47 0 38 -29z m2584 0 c56 -25 69 -36
95 -83 l31 -53 -27 -9 c-30 -10 -113 12 -175 47 -35 19 -78 83 -78 115 0 23
88 13 154 -17z m-3184 -43 c0 -25 8 -57 20 -76 23 -37 27 -118 7 -142 -13 -17
-100 -70 -114 -70 -5 0 -9 46 -8 103 1 106 15 154 59 205 28 32 36 28 36 -20z
m3679 16 c42 -53 61 -128 57 -219 -2 -47 -7 -85 -10 -85 -24 -1 -108 55 -121
80 -21 40 -19 66 10 128 14 30 25 69 25 88 0 41 11 43 39 8z m-3846 -161 c51
-73 29 -178 -51 -239 -25 -18 -48 -34 -52 -34 -7 0 -10 20 -27 162 -8 69 13
139 55 189 l37 43 6 -41 c3 -23 17 -59 32 -80z m4096 -7 c6 -25 11 -59 11 -75
0 -29 -18 -161 -26 -189 -2 -8 -21 0 -53 25 -86 66 -107 172 -51 260 17 26 30
61 30 77 l1 31 38 -42 c23 -26 43 -61 50 -87z m-4302 -130 c47 -53 60 -100 42
-154 -31 -98 -90 -97 -141 2 -29 58 -22 161 18 236 l28 55 6 -46 c4 -35 15
-57 47 -93z m4470 77 c36 -78 42 -175 15 -229 -25 -49 -51 -73 -83 -76 -20 -3
-28 5 -46 42 -34 66 -31 117 10 166 55 64 67 87 67 121 0 18 2 33 6 33 3 0 17
-25 31 -57z m-3789 22 c18 -4 49 -22 67 -41 28 -28 42 -34 77 -34 l43 -1 -40
-21 c-75 -41 -261 -22 -310 32 -16 18 -15 20 42 48 32 17 65 29 73 27 8 -2 30
-7 48 -10z m3143 -16 l63 -32 -27 -23 c-38 -32 -99 -48 -187 -48 -53 0 -87 5
-115 18 l-40 19 43 7 c27 4 53 17 73 36 24 23 76 46 120 53 4 1 35 -13 70 -30z
m204 -116 c86 -50 85 -49 39 -93 -73 -68 -187 -81 -289 -31 -51 25 -56 30 -32
30 16 1 37 11 50 26 57 66 89 94 109 98 37 6 80 -4 123 -30z m-3516 13 c13 -7
36 -31 51 -52 16 -24 39 -43 60 -51 l35 -11 -50 -23 c-60 -27 -144 -35 -203
-19 -38 10 -122 71 -122 89 0 4 26 23 58 44 62 40 125 49 171 23z m-748 -122
c13 -12 41 -29 62 -39 21 -10 44 -30 52 -46 31 -58 8 -149 -37 -149 -53 0
-142 84 -154 145 -7 41 -1 96 16 140 l12 30 13 -30 c7 -16 23 -40 36 -51z
m4939 -34 c0 -85 -51 -161 -131 -194 -35 -15 -37 -14 -58 8 -13 13 -25 41 -27
63 -7 52 21 94 88 129 36 20 59 41 73 67 l20 38 17 -38 c10 -21 18 -54 18 -73z
m-457 -8 c26 -19 47 -38 47 -42 0 -5 -29 -38 -64 -74 l-64 -66 -62 0 c-82 0
-132 16 -178 57 -35 31 -35 33 -11 27 15 -3 45 -1 67 6 33 8 47 19 67 54 56
95 105 105 198 38z m-3955 20 c9 -10 31 -39 48 -64 28 -40 38 -46 78 -52 25
-4 50 -4 56 -1 23 14 7 -12 -21 -34 -44 -35 -95 -50 -167 -51 l-64 0 -64 65
c-35 35 -64 69 -64 74 0 5 21 25 48 44 55 42 120 50 150 19z m4569 -167 c-8
-89 -27 -138 -70 -183 -32 -34 -95 -72 -119 -72 -15 0 -78 109 -78 135 0 9 15
32 34 51 28 28 41 34 78 34 51 0 120 42 140 85 6 14 13 25 16 25 3 0 2 -34 -1
-75z m-5246 -21 c15 -7 46 -14 67 -14 45 0 84 -26 101 -67 10 -25 8 -35 -19
-86 -17 -31 -34 -59 -38 -61 -15 -9 -86 24 -120 56 -47 45 -72 105 -79 191
l-6 71 33 -37 c18 -21 46 -45 61 -53z m517 10 c12 -8 31 -32 42 -53 26 -51 74
-91 111 -91 16 0 29 -4 29 -10 0 -8 -20 -13 -98 -24 -45 -7 -116 16 -146 45
-15 16 -47 34 -70 40 -22 6 -51 16 -64 22 l-22 11 27 29 c16 16 37 33 48 37
34 15 119 11 143 -6z m4308 -25 l35 -35 -23 -11 c-13 -6 -42 -16 -64 -22 -23
-6 -55 -25 -71 -41 -40 -41 -118 -57 -196 -40 -60 12 -77 30 -28 30 38 0 92
38 113 80 10 19 30 46 45 59 23 20 34 23 90 19 57 -4 67 -8 99 -39z m-4465
-109 c44 -12 75 -45 84 -88 7 -35 53 -72 90 -72 18 -1 18 -2 3 -11 -10 -5 -57
-10 -105 -11 -104 -2 -188 19 -222 56 l-24 25 34 56 c30 50 36 55 69 55 19 0
51 -5 71 -10z m4578 -46 l33 -56 -23 -24 c-13 -14 -48 -32 -79 -41 -59 -18
-186 -23 -235 -10 l-29 8 39 18 c48 21 60 36 69 77 12 55 58 81 146 83 45 1
46 0 79 -55z m-5066 -52 c15 -7 46 -12 68 -12 31 0 47 -7 70 -29 26 -26 29
-36 29 -90 0 -128 -37 -143 -126 -48 -77 80 -102 123 -110 183 l-7 49 24 -21
c13 -11 37 -26 52 -32z m5483 7 c-10 -62 -42 -117 -109 -187 -74 -77 -102 -80
-124 -17 -33 96 14 185 98 185 39 0 111 29 124 50 13 21 17 9 11 -31z m-2209
-37 c32 -25 113 -255 113 -321 0 -28 -2 -51 -5 -51 -3 0 -19 16 -36 35 -22 25
-49 40 -96 55 -36 11 -67 20 -70 20 -2 0 -33 -60 -68 -133 -56 -116 -114 -293
-115 -347 0 -16 108 -279 120 -293 9 -10 229 19 366 48 16 3 38 45 98 178 l77
173 87 13 c48 7 128 19 177 26 50 8 135 21 190 29 55 9 330 50 610 91 281 42
551 82 600 90 297 47 707 106 711 102 4 -4 -82 -313 -90 -324 -1 -2 -1109
-193 -1119 -193 -8 0 -30 -70 -24 -77 3 -3 140 18 303 46 164 28 298 50 299
48 3 -3 -70 -226 -76 -231 -2 -2 -243 -45 -534 -95 -292 -50 -542 -94 -556
-97 -19 -4 -31 -16 -42 -45 -11 -27 -12 -39 -4 -39 7 0 181 29 387 65 205 35
375 63 376 62 2 -2 -86 -228 -92 -235 -6 -8 -1212 -212 -1253 -212 -12 0 -24
-15 -34 -42 -9 -23 -16 -43 -14 -44 1 -1 154 23 340 53 186 30 340 53 343 50
4 -4 -90 -244 -99 -254 -3 -3 -660 -103 -676 -103 -5 0 -22 -37 -40 -82 l-32
-83 86 -181 c47 -100 85 -186 85 -191 0 -13 -139 -38 -151 -26 -5 5 -17 33
-28 63 -17 52 -20 55 -50 53 -18 0 -35 -4 -38 -7 -4 -3 8 -48 25 -98 18 -51
32 -99 32 -105 0 -10 -27 -13 -101 -13 -115 0 -109 -10 -63 104 13 33 24 65
24 71 0 6 -22 40 -50 76 -43 55 -49 68 -44 97 6 32 6 32 -35 32 -28 0 -41 -4
-41 -14 0 -7 -3 -26 -6 -42 -4 -24 3 -40 44 -92 l49 -64 -37 -96 -38 -97 -55
-3 c-56 -3 -56 -3 -65 30 l-8 33 -219 0 -219 0 -8 -33 c-9 -33 -9 -33 -65 -30
l-55 3 -38 97 -37 96 49 64 c41 52 48 68 44 92 -3 16 -6 35 -6 42 0 10 -13 14
-41 14 -41 0 -41 0 -35 -32 5 -29 -1 -42 -44 -97 -28 -36 -50 -70 -50 -76 0
-6 11 -38 24 -71 46 -114 52 -104 -63 -104 -74 0 -101 3 -101 13 0 6 14 54 32
105 17 50 29 95 25 98 -3 3 -20 7 -38 7 -30 2 -33 -1 -50 -53 -11 -30 -23 -58
-28 -63 -12 -12 -151 13 -151 26 0 5 38 91 85 191 l86 181 -32 83 c-18 45 -35
82 -40 82 -4 0 -157 23 -339 50 -182 28 -333 50 -334 50 -2 0 -25 53 -51 118
-27 64 -53 123 -58 130 -14 18 -3 17 358 -42 181 -30 331 -53 332 -52 2 1 -5
21 -14 44 -10 27 -22 42 -34 42 -41 0 -1247 204 -1253 212 -6 7 -94 233 -92
235 1 1 174 -27 384 -64 211 -36 385 -63 388 -60 7 7 -15 77 -23 77 -25 0
-1119 193 -1124 198 -7 9 -45 133 -57 188 -9 38 -8 40 12 37 12 -1 141 -23
287 -48 146 -25 272 -45 279 -45 13 0 7 57 -8 72 -4 4 -259 50 -567 103 -308
53 -560 97 -561 98 -8 11 -94 320 -90 324 4 4 414 -55 711 -102 50 -8 320 -48
600 -90 281 -41 555 -82 610 -91 55 -8 141 -21 190 -29 50 -7 129 -19 177 -26
l87 -13 77 -173 c59 -132 83 -175 98 -178 36 -8 188 -33 247 -40 l56 -7 78
228 79 228 -60 114 c-50 96 -69 123 -127 174 -37 33 -65 63 -62 66 3 3 56 9
118 12 l112 7 240 102 c265 112 270 113 332 58 l35 -31 91 47 c101 50 156 59
194 29z m-2900 -93 c15 -6 38 -20 50 -31 26 -24 96 -38 136 -27 32 9 32 7 11
-27 -46 -70 -194 -109 -296 -78 -32 9 -58 23 -58 29 0 26 32 101 52 122 23 25
60 29 105 12z m4771 -12 c20 -22 52 -96 52 -122 0 -7 -25 -20 -55 -29 -97 -31
-229 -3 -285 60 -16 19 -30 38 -30 42 0 4 27 5 60 4 54 -3 65 -1 98 25 63 49
126 57 160 20z m432 -117 c-13 -49 -25 -55 -140 -70 -47 -6 -96 -14 -108 -17
l-24 -6 21 41 c28 54 63 77 145 93 38 7 79 21 90 30 20 17 21 17 24 -6 2 -13
-2 -42 -8 -65z m-5644 40 c11 0 42 -7 68 -16 38 -13 54 -26 77 -62 16 -25 28
-46 26 -47 -8 -8 -243 37 -254 48 -7 7 -16 37 -20 65 l-6 52 44 -20 c24 -11
53 -20 65 -20z m5234 -139 c21 -6 15 -9 -30 -15 -30 -4 -64 -10 -75 -13 l-20
-5 20 15 c33 24 65 30 105 18z m-4830 -11 c12 -8 10 -10 -10 -9 -14 0 -43 4
-65 8 l-40 9 50 1 c28 0 57 -4 65 -9z m4604 -31 c-8 -14 -34 -10 -34 5 0 9 7
12 20 9 11 -3 17 -9 14 -14z m-4439 1 c-3 -5 -12 -7 -20 -3 -21 7 -19 13 6 13
11 0 18 -4 14 -10z m5216 -394 c-33 -36 -139 -85 -198 -92 -58 -7 -61 -4 -39
47 14 34 15 34 118 50 150 24 146 24 119 -5z m-5888 -10 c64 -12 119 -25 121
-27 2 -2 6 -17 10 -33 l7 -29 -63 6 c-66 7 -172 53 -204 88 -22 24 -20 24 129
-5z m134 -162 c16 -5 27 -22 43 -69 11 -34 30 -71 40 -80 65 -58 -50 -72 -203
-25 -82 26 -136 66 -159 118 -11 24 -18 46 -15 48 2 2 31 -2 64 -10 54 -12 65
-12 109 4 54 19 87 23 121 14z m5620 -15 c44 -11 60 -10 107 3 31 8 56 12 56
7 0 -5 -7 -26 -16 -48 -26 -65 -94 -109 -211 -135 -140 -31 -212 -14 -149 35
14 11 32 43 42 72 28 87 30 90 77 84 23 -3 65 -11 94 -18z m-5285 -199 l56
-11 -20 -49 c-25 -61 -38 -72 -115 -98 -71 -23 -73 -22 -73 61 0 71 30 121 68
113 15 -3 53 -10 84 -16z m4948 -12 c13 -22 20 -51 20 -85 0 -77 -4 -83 -48
-71 -88 24 -110 38 -131 83 -32 68 -32 67 49 86 41 9 78 17 83 18 4 1 16 -14
27 -31z m-5204 -87 c43 -20 44 -21 59 -112 6 -34 5 -36 -33 -47 -99 -30 -269
-3 -322 50 -27 27 -57 94 -47 104 3 3 19 -2 36 -10 44 -23 102 -20 152 9 52
30 99 31 155 6z m5483 -6 c50 -29 108 -32 152 -9 17 8 33 13 36 11 10 -11 -41
-107 -65 -123 -64 -42 -247 -59 -317 -30 -32 14 -34 17 -25 41 6 15 10 39 10
54 0 73 122 105 209 56z m-5120 -104 c-13 -81 -66 -151 -139 -181 -27 -11 -32
-11 -45 6 -65 90 -17 193 92 194 29 1 84 17 99 29 1 1 -2 -21 -7 -48z m4698
19 c52 0 98 -30 113 -74 9 -30 8 -42 -11 -85 -25 -60 -37 -62 -100 -23 -50 32
-94 104 -105 170 l-7 42 36 -15 c20 -8 53 -15 74 -15z m-4976 -152 c9 -7 24
-35 33 -61 15 -40 16 -50 5 -64 -38 -45 -224 -79 -291 -53 -32 13 -118 87
-118 102 0 4 22 4 48 1 53 -6 104 13 171 62 26 19 46 25 86 25 28 0 58 -6 66
-12z m5310 -13 c68 -48 92 -58 156 -58 35 0 63 -3 63 -7 0 -14 -88 -88 -118
-100 -43 -17 -181 -6 -236 19 -66 29 -73 43 -51 104 10 29 23 55 29 59 6 4 36
8 67 8 44 0 63 -5 90 -25z m-448 -55 c17 -5 44 -10 61 -10 43 -1 67 -22 76
-68 9 -51 -17 -126 -45 -130 -23 -3 -123 49 -149 77 -24 27 -31 89 -16 152
l13 54 15 -32 c9 -19 27 -36 45 -43z m-4489 -25 c10 -73 -13 -111 -89 -152
-85 -46 -98 -44 -118 16 -18 56 -10 114 20 136 10 8 34 15 53 15 57 1 80 11
97 44 14 28 17 29 23 11 4 -11 10 -42 14 -70z m60 -200 c-8 -73 -30 -146 -60
-199 -31 -56 -37 -53 -89 39 -57 102 -49 134 42 176 43 19 70 39 81 59 l17 29
7 -27 c4 -15 5 -49 2 -77z m4393 20 c96 -42 105 -75 48 -179 -47 -84 -59 -94
-79 -64 -49 75 -88 239 -72 302 l7 29 20 -31 c12 -22 38 -41 76 -57z m-4758
34 c21 -8 38 -24 52 -50 17 -35 18 -42 5 -60 -20 -29 -131 -79 -175 -79 -54 0
-122 26 -162 61 -19 17 -28 28 -22 24 20 -10 88 13 109 36 62 70 124 92 193
68z m5157 -18 c21 -15 48 -38 58 -50 21 -23 89 -46 109 -36 6 4 -3 -7 -22 -24
-40 -36 -109 -61 -164 -61 -48 0 -161 51 -176 79 -15 27 16 98 49 110 51 19
105 13 146 -18z m-4650 -220 c10 -68 -1 -201 -22 -244 l-18 -37 -29 27 c-52
49 -87 104 -87 137 0 32 14 57 63 120 17 20 31 53 34 77 l6 42 23 -39 c13 -21
26 -58 30 -83z m4102 2 c80 -94 80 -141 0 -228 l-51 -56 -20 33 c-16 25 -22
55 -25 125 -5 114 2 169 30 213 l22 35 6 -42 c4 -27 18 -57 38 -80z m-4488 38
c0 -5 23 -44 52 -87 59 -88 59 -87 -41 -125 -82 -30 -234 -24 -306 13 -27 14
-59 36 -70 48 l-19 21 51 -7 c72 -9 114 8 157 63 20 25 36 50 36 54 0 12 52
27 98 28 23 1 42 -3 42 -8z m4895 -3 c14 -6 25 -14 25 -18 0 -4 16 -28 36 -53
43 -55 89 -72 162 -61 l47 7 -20 -23 c-64 -72 -244 -106 -360 -68 -33 11 -72
27 -88 37 l-27 17 38 55 c22 30 47 69 56 87 15 29 21 32 61 32 24 0 56 -5 70
-12z m-4339 -206 c23 -73 26 -96 21 -170 -4 -66 -9 -89 -25 -104 -20 -20 -20
-20 -51 3 -68 50 -79 177 -26 292 20 43 25 67 21 90 l-6 32 19 -29 c11 -16 32
-68 47 -114z m3726 108 c-3 -20 5 -52 23 -91 51 -114 44 -224 -19 -281 -40
-37 -54 -35 -73 10 -24 55 -22 162 6 252 19 62 55 140 65 140 1 0 1 -14 -2
-30z m-3560 -159 c72 -46 114 -110 127 -193 10 -61 -1 -107 -35 -148 -30 -36
-47 -37 -94 -9 -66 41 -74 76 -40 168 30 78 29 133 -4 176 -34 44 -17 46 46 6z
m3383 -5 c-39 -51 -42 -91 -11 -164 44 -105 30 -150 -61 -196 -31 -16 -31 -15
-66 24 -43 47 -55 97 -38 159 25 93 71 155 143 193 51 28 62 22 33 -16z
m-3160 -9 c17 -6 64 -39 106 -74 102 -84 142 -155 143 -259 1 -97 -4 -101 -96
-84 -40 7 -79 18 -87 24 -8 6 -27 40 -43 74 -23 52 -28 78 -28 138 0 78 -10
110 -57 172 l-25 33 29 -6 c15 -4 42 -12 58 -18z m2952 -9 c-47 -62 -57 -94
-57 -172 0 -60 -5 -86 -28 -138 -16 -34 -35 -68 -43 -74 -8 -5 -42 -16 -77
-23 -35 -6 -69 -14 -76 -17 -38 -15 -45 149 -10 219 61 121 203 234 297 237
16 0 15 -4 -6 -32z m-3687 -2 c34 -15 83 -87 74 -109 -3 -10 -30 -30 -58 -44
-42 -22 -69 -27 -153 -31 l-102 -5 -65 37 c-78 43 -88 56 -46 56 44 0 90 22
130 63 52 53 146 67 220 33z m4490 14 c40 -8 61 -19 88 -46 40 -41 87 -64 132
-64 42 0 32 -13 -47 -56 -62 -35 -70 -37 -147 -35 -45 1 -99 6 -121 12 -54 14
-115 55 -115 77 0 10 16 37 35 59 30 35 63 53 116 62 4 1 30 -4 59 -9z m-4244
-256 c24 -20 44 -40 44 -44 0 -16 -105 -68 -158 -79 -29 -6 -79 -11 -111 -11
-57 0 -151 25 -151 40 0 4 17 11 37 15 26 5 50 20 77 48 45 48 87 64 164 66
48 1 59 -3 98 -35z m4055 24 c19 -6 52 -30 74 -54 28 -29 52 -44 78 -49 20 -4
37 -11 37 -15 0 -5 -23 -16 -51 -25 -39 -13 -72 -16 -133 -12 -98 6 -137 17
-200 57 l-48 31 49 39 c43 36 53 40 104 40 31 0 71 -5 90 -12z m-3823 -177
c23 -12 42 -26 42 -31 0 -18 -104 -78 -165 -96 -80 -23 -208 -13 -279 20 l-51
24 35 1 c44 2 107 30 141 64 39 40 66 47 154 43 57 -2 93 -10 123 -25z m3680
-18 c52 -41 101 -62 152 -64 20 0 14 -6 -30 -27 -49 -24 -66 -27 -165 -27
-122 0 -168 14 -247 76 l-40 32 28 16 c62 32 101 41 174 38 71 -2 78 -4 128
-44z m-1810 -65 l8 -33 111 -3 c89 -2 112 0 123 13 10 12 42 15 181 15 l169 0
0 -330 0 -330 -755 0 -755 0 0 330 0 330 169 0 c139 0 171 -3 181 -15 11 -13
34 -15 123 -13 l111 3 8 33 9 32 154 0 154 0 9 -32z m-1518 5 c68 -8 80 -13
80 -32 0 -14 -12 -22 -45 -30 -25 -6 -55 -22 -66 -35 -12 -14 -37 -26 -61 -30
-24 -4 -55 -19 -73 -35 -22 -19 -50 -31 -81 -36 -27 -4 -55 -12 -62 -17 -18
-15 -113 -3 -153 18 l-34 19 50 5 c65 8 108 31 134 74 30 47 103 94 160 101
25 4 53 8 61 10 8 2 24 1 35 -2 11 -3 36 -7 55 -10z m2905 -12 c44 -20 83 -53
110 -95 23 -35 68 -58 125 -66 l45 -5 -26 -18 c-32 -21 -123 -34 -141 -19 -7
5 -35 13 -62 17 -31 5 -59 17 -81 36 -18 16 -49 31 -74 35 -24 4 -47 15 -55
26 -14 19 -75 47 -107 48 -22 0 -34 31 -17 42 7 4 31 8 53 8 22 0 47 5 55 11
21 14 126 2 175 -20z m-2356 -103 l0 -103 -25 79 c-32 105 -31 126 1 126 l25
0 -1 -102z m1661 79 c0 -13 -11 -59 -24 -103 l-25 -79 0 103 -1 102 25 0 c19
0 25 -5 25 -23z m-1766 -34 c2 -10 27 -93 55 -184 44 -142 51 -178 51 -248 l0
-82 -67 3 -68 3 -76 255 -77 255 67 6 c36 3 76 6 88 7 13 1 24 -5 27 -15z
m2002 3 c1 0 -33 -116 -75 -256 l-76 -255 -68 -3 -67 -3 0 82 c0 70 7 106 51
248 28 91 52 174 55 183 4 15 16 16 92 11 48 -3 88 -6 88 -7z m-2167 -252 c34
-113 61 -207 59 -208 -2 -1 -34 0 -71 3 -65 6 -69 7 -87 41 -22 40 -114 340
-106 347 4 4 86 19 127 22 11 1 30 -49 78 -205z m2334 190 c15 -3 27 -8 27
-11 0 -20 -94 -315 -110 -343 -18 -34 -22 -35 -87 -41 -37 -3 -69 -4 -71 -3
-2 1 25 95 59 208 l63 207 46 -6 c25 -4 57 -9 73 -11z m-2551 -184 c21 -69 38
-128 38 -132 0 -5 -24 -8 -54 -8 -47 0 -56 3 -71 27 -16 24 -79 214 -73 218 8
5 95 23 107 21 9 0 28 -46 53 -126z m2711 114 c28 -5 36 -11 33 -23 -39 -133
-52 -171 -68 -198 -18 -31 -23 -33 -74 -33 -30 0 -54 3 -54 8 0 6 64 220 75
251 3 8 13 11 28 7 12 -3 39 -9 60 -12z m-2894 -139 c11 -38 19 -70 18 -70 -1
-1 -25 1 -54 3 l-51 4 -26 60 c-15 34 -25 62 -24 63 8 7 104 21 110 16 3 -3
15 -37 27 -76z m3089 60 c1 -1 -9 -29 -24 -63 l-26 -60 -51 -4 c-29 -2 -53 -4
-54 -3 -2 1 31 115 41 141 3 8 18 9 58 1 29 -5 54 -11 56 -12z"/>
</g>
</svg>
